<svg xmlns="http://www.w3.org/2000/svg" width="800" height="300" viewBox="0 0 800 300"><defs><linearGradient id="bodyGradient" x1="0%" x2="0%" y1="0%" y2="100%"><stop offset="0%" style="stop-color:#333;stop-opacity:1"/><stop offset="100%" style="stop-color:#1a1a1a;stop-opacity:1"/></linearGradient><rect id="whiteKey" width="28" height="140" fill="#fcfcfc" stroke="#ccc" stroke-width="1" rx="2"/><rect id="blackKey" width="16" height="90" fill="#111" stroke="#000" stroke-width="1" rx="1"/></defs><rect width="780" height="280" x="10" y="10" fill="url(#bodyGradient)" stroke="#000" stroke-width="4" rx="30" ry="30"/><rect width="120" height="60" x="50" y="40" fill="#444" stroke="#222" stroke-width="2" rx="10"/><ellipse cx="110" cy="70" fill="#222" rx="40" ry="15"/><rect width="120" height="60" x="630" y="40" fill="#444" stroke="#222" stroke-width="2" rx="10"/><ellipse cx="690" cy="70" fill="#222" rx="40" ry="15"/><rect width="120" height="70" x="190" y="40" fill="#3a3a3a" stroke="#222" rx="5"/><g stroke="#999" stroke-linecap="round" stroke-width="2"><line x1="205" x2="205" y1="50" y2="70"/><circle cx="205" cy="70" r="3" fill="#666" stroke="none"/><line x1="220" x2="220" y1="50" y2="65"/><circle cx="220" cy="65" r="3" fill="#666" stroke="none"/><line x1="235" x2="235" y1="50" y2="75"/><circle cx="235" cy="75" r="3" fill="#666" stroke="none"/><line x1="250" x2="250" y1="50" y2="60"/><circle cx="250" cy="60" r="3" fill="#666" stroke="none"/><line x1="265" x2="265" y1="50" y2="70"/><circle cx="265" cy="70" r="3" fill="#666" stroke="none"/><line x1="280" x2="280" y1="50" y2="55"/><circle cx="280" cy="55" r="3" fill="#666" stroke="none"/><line x1="295" x2="295" y1="50" y2="65"/><circle cx="295" cy="65" r="3" fill="#666" stroke="none"/></g><g fill="#555"><circle cx="210" cy="90" r="4"/><circle cx="230" cy="90" r="4"/><circle cx="250" cy="90" r="4"/><circle cx="270" cy="90" r="4"/><circle cx="290" cy="90" r="4"/></g><rect width="140" height="40" x="330" y="35" fill="#4DD0E1" stroke="#222" stroke-width="2" rx="5"/><g fill="#666"><circle cx="340" cy="90" r="5"/><circle cx="360" cy="90" r="5"/><circle cx="380" cy="90" r="5"/><circle cx="400" cy="90" r="5"/><circle cx="420" cy="90" r="5"/><circle cx="440" cy="90" r="5"/><circle cx="460" cy="90" r="5"/></g><rect width="120" height="70" x="490" y="40" fill="#3a3a3a" stroke="#222" rx="5"/><g stroke="#999" stroke-linecap="round" stroke-width="2"><line x1="505" x2="505" y1="50" y2="70"/><circle cx="505" cy="70" r="3" fill="#666" stroke="none"/><line x1="520" x2="520" y1="50" y2="65"/><circle cx="520" cy="65" r="3" fill="#666" stroke="none"/><line x1="535" x2="535" y1="50" y2="75"/><circle cx="535" cy="75" r="3" fill="#666" stroke="none"/><line x1="550" x2="550" y1="50" y2="60"/><circle cx="550" cy="60" r="3" fill="#666" stroke="none"/><line x1="565" x2="565" y1="50" y2="70"/><circle cx="565" cy="70" r="3" fill="#666" stroke="none"/><line x1="580" x2="580" y1="50" y2="55"/><circle cx="580" cy="55" r="3" fill="#666" stroke="none"/><line x1="595" x2="595" y1="50" y2="65"/><circle cx="595" cy="65" r="3" fill="#666" stroke="none"/></g><g fill="#555"><circle cx="510" cy="90" r="4"/><circle cx="530" cy="90" r="4"/><circle cx="550" cy="90" r="4"/><circle cx="570" cy="90" r="4"/><circle cx="590" cy="90" r="4"/></g><g transform="translate(45, 130)"><use x="0" y="0" href="#whiteKey"/><use x="28" y="0" href="#whiteKey"/><use x="56" y="0" href="#whiteKey"/><use x="84" y="0" href="#whiteKey"/><use x="112" y="0" href="#whiteKey"/><use x="140" y="0" href="#whiteKey"/><use x="168" y="0" href="#whiteKey"/><use x="196" y="0" href="#whiteKey"/><use x="224" y="0" href="#whiteKey"/><use x="252" y="0" href="#whiteKey"/><use x="280" y="0" href="#whiteKey"/><use x="308" y="0" href="#whiteKey"/><use x="336" y="0" href="#whiteKey"/><use x="364" y="0" href="#whiteKey"/><use x="392" y="0" href="#whiteKey"/><use x="420" y="0" href="#whiteKey"/><use x="448" y="0" href="#whiteKey"/><use x="476" y="0" href="#whiteKey"/><use x="504" y="0" href="#whiteKey"/><use x="532" y="0" href="#whiteKey"/><use x="560" y="0" href="#whiteKey"/><use x="588" y="0" href="#whiteKey"/><use x="616" y="0" href="#whiteKey"/><use x="644" y="0" href="#whiteKey"/><use x="672" y="0" href="#whiteKey"/><use x="18" y="0" href="#blackKey"/><use x="50" y="0" href="#blackKey"/><use x="106" y="0" href="#blackKey"/><use x="136" y="0" href="#blackKey"/><use x="166" y="0" href="#blackKey"/><use x="220" y="0" href="#blackKey"/><use x="250" y="0" href="#blackKey"/><use x="306" y="0" href="#blackKey"/><use x="336" y="0" href="#blackKey"/><use x="366" y="0" href="#blackKey"/><use x="420" y="0" href="#blackKey"/><use x="450" y="0" href="#blackKey"/><use x="506" y="0" href="#blackKey"/><use x="536" y="0" href="#blackKey"/><use x="566" y="0" href="#blackKey"/><use x="620" y="0" href="#blackKey"/><use x="650" y="0" href="#blackKey"/></g></svg>